<svg width="24" height="24" viewBox="0 0 24 24" fill="none" xmlns="http://www.w3.org/2000/svg">
<path d="M15.6377 3H8.3623C5.40551 3 3 5.40551 3 8.3623V15.6377C3 18.5945 5.40551 21 8.3623 21H15.6377C18.5945 21 21 18.5945 21 15.6377V8.3623C21 5.40551 18.5945 3 15.6377 3ZM19.1892 15.6377C19.1892 17.5991 17.5991 19.1892 15.6377 19.1892H8.3623C6.40088 19.1892 4.8108 17.5991 4.8108 15.6377V8.3623C4.8108 6.40084 6.40088 4.8108 8.3623 4.8108H15.6377C17.5991 4.8108 19.1892 6.40084 19.1892 8.3623V15.6377Z" fill="#5CA720"/>
<path d="M11.9999 7.34454C9.43291 7.34454 7.34448 9.43297 7.34448 12C7.34448 14.5669 9.43291 16.6554 11.9999 16.6554C14.5669 16.6554 16.6554 14.567 16.6554 12C16.6554 9.43294 14.5669 7.34454 11.9999 7.34454ZM11.9999 14.8446C10.4289 14.8446 9.15528 13.571 9.15528 12C9.15528 10.4289 10.4289 9.15534 11.9999 9.15534C13.571 9.15534 14.8446 10.4289 14.8446 12C14.8446 13.571 13.571 14.8446 11.9999 14.8446Z" fill="#5CA720"/>
<path d="M16.6644 8.49512C17.2805 8.49512 17.7799 7.99567 17.7799 7.37958C17.7799 6.76348 17.2805 6.26404 16.6644 6.26404C16.0483 6.26404 15.5488 6.76348 15.5488 7.37958C15.5488 7.99567 16.0483 8.49512 16.6644 8.49512Z" fill="#5CA720"/>
</svg>
