<svg width="24" height="24" viewBox="0 0 24 24" fill="none" xmlns="http://www.w3.org/2000/svg">
<path d="M6.27557 18.9528V18.0257C6.27557 17.6704 6.05926 17.4386 5.68845 17.4386C5.50304 17.4386 5.30218 17.5004 5.16312 17.7013C5.05497 17.5313 4.90046 17.4386 4.6687 17.4386C4.5142 17.4386 4.35969 17.485 4.23608 17.6549V17.4695H3.91162V18.9528H4.23608V18.1339C4.23608 17.8712 4.37514 17.7476 4.59145 17.7476C4.80776 17.7476 4.91591 17.8867 4.91591 18.1339V18.9528H5.24038V18.1339C5.24038 17.8712 5.39488 17.7476 5.59574 17.7476C5.81205 17.7476 5.92021 17.8867 5.92021 18.1339V18.9528H6.27557ZM11.0807 17.4695H10.5554V17.0214H10.2309V17.4695H9.93737V17.7631H10.2309V18.4429C10.2309 18.7828 10.37 18.9837 10.7408 18.9837C10.8799 18.9837 11.0344 18.9373 11.1425 18.8755L11.0498 18.5974C10.9571 18.6592 10.849 18.6747 10.7717 18.6747C10.6172 18.6747 10.5554 18.582 10.5554 18.4274V17.7631H11.0807V17.4695ZM13.8309 17.4386C13.6455 17.4386 13.5219 17.5313 13.4447 17.6549V17.4695H13.1202V18.9528H13.4447V18.1184C13.4447 17.8712 13.5528 17.7322 13.7537 17.7322C13.8155 17.7322 13.8927 17.7476 13.9545 17.7631L14.0472 17.4541C13.9854 17.4386 13.8927 17.4386 13.8309 17.4386ZM9.67471 17.5931C9.5202 17.485 9.3039 17.4386 9.07214 17.4386C8.70132 17.4386 8.45411 17.624 8.45411 17.9176C8.45411 18.1648 8.63952 18.3038 8.96398 18.3502L9.11849 18.3656C9.28845 18.3965 9.38115 18.4429 9.38115 18.5202C9.38115 18.6283 9.25754 18.7056 9.04124 18.7056C8.82493 18.7056 8.65497 18.6283 8.54681 18.5511L8.39231 18.7983C8.56227 18.9219 8.79402 18.9837 9.02578 18.9837C9.4584 18.9837 9.70561 18.7828 9.70561 18.5047C9.70561 18.242 9.50475 18.103 9.19574 18.0566L9.04124 18.0412C8.90218 18.0257 8.79402 17.9948 8.79402 17.9021C8.79402 17.794 8.90218 17.7322 9.07214 17.7322C9.25754 17.7322 9.44295 17.8094 9.53566 17.8558L9.67471 17.5931ZM18.2962 17.4386C18.1108 17.4386 17.9872 17.5313 17.9099 17.6549V17.4695H17.5854V18.9528H17.9099V18.1184C17.9099 17.8712 18.0181 17.7322 18.2189 17.7322C18.2807 17.7322 18.358 17.7476 18.4198 17.7631L18.5125 17.4541C18.4507 17.4386 18.358 17.4386 18.2962 17.4386ZM14.1554 18.2111C14.1554 18.6592 14.4644 18.9837 14.9434 18.9837C15.1597 18.9837 15.3142 18.9373 15.4687 18.8137L15.3142 18.5511C15.1906 18.6438 15.067 18.6901 14.9279 18.6901C14.6653 18.6901 14.4799 18.5047 14.4799 18.2111C14.4799 17.933 14.6653 17.7476 14.9279 17.7322C15.067 17.7322 15.1906 17.7785 15.3142 17.8712L15.4687 17.6086C15.3142 17.485 15.1597 17.4386 14.9434 17.4386C14.4644 17.4386 14.1554 17.7631 14.1554 18.2111ZM17.1528 18.2111V17.4695H16.8284V17.6549C16.7202 17.5159 16.5657 17.4386 16.3648 17.4386C15.9477 17.4386 15.6232 17.7631 15.6232 18.2111C15.6232 18.6592 15.9477 18.9837 16.3648 18.9837C16.5811 18.9837 16.7357 18.9064 16.8284 18.7674V18.9528H17.1528V18.2111ZM15.9631 18.2111C15.9631 17.9485 16.1331 17.7322 16.4112 17.7322C16.6739 17.7322 16.8593 17.933 16.8593 18.2111C16.8593 18.4738 16.6739 18.6901 16.4112 18.6901C16.1331 18.6747 15.9631 18.4738 15.9631 18.2111ZM12.085 17.4386C11.6524 17.4386 11.3434 17.7476 11.3434 18.2111C11.3434 18.6747 11.6524 18.9837 12.1005 18.9837C12.3168 18.9837 12.5331 18.9219 12.703 18.7828L12.5485 18.5511C12.4249 18.6438 12.2704 18.7056 12.1159 18.7056C11.9151 18.7056 11.7142 18.6129 11.6678 18.3502H12.7648V18.2266C12.7803 17.7476 12.5022 17.4386 12.085 17.4386ZM12.085 17.7167C12.2859 17.7167 12.4249 17.8403 12.4558 18.0721H11.6833C11.7142 17.8712 11.8533 17.7167 12.085 17.7167ZM20.1348 18.2111V16.8824H19.8103V17.6549C19.7022 17.5159 19.5477 17.4386 19.3468 17.4386C18.9296 17.4386 18.6052 17.7631 18.6052 18.2111C18.6052 18.6592 18.9296 18.9837 19.3468 18.9837C19.5631 18.9837 19.7176 18.9064 19.8103 18.7674V18.9528H20.1348V18.2111ZM18.9451 18.2111C18.9451 17.9485 19.1151 17.7322 19.3932 17.7322C19.6558 17.7322 19.8412 17.933 19.8412 18.2111C19.8412 18.4738 19.6558 18.6901 19.3932 18.6901C19.1151 18.6747 18.9451 18.4738 18.9451 18.2111ZM8.09875 18.2111V17.4695H7.77428V17.6549C7.66613 17.5159 7.51162 17.4386 7.31076 17.4386C6.8936 17.4386 6.56913 17.7631 6.56913 18.2111C6.56913 18.6592 6.8936 18.9837 7.31076 18.9837C7.52707 18.9837 7.68158 18.9064 7.77428 18.7674V18.9528H8.09875V18.2111ZM6.8936 18.2111C6.8936 17.9485 7.06355 17.7322 7.34166 17.7322C7.60433 17.7322 7.78973 17.933 7.78973 18.2111C7.78973 18.4738 7.60433 18.6901 7.34166 18.6901C7.06355 18.6747 6.8936 18.4738 6.8936 18.2111Z" fill="black"/>
<path d="M14.4335 6.20599H9.56653V14.9511H14.4335V6.20599Z" fill="#FF5F00"/>
<path d="M9.87554 10.5785C9.87554 8.80167 10.7099 7.22571 11.9923 6.20597C11.0498 5.46433 9.86009 5.01627 8.56223 5.01627C5.48755 5.01627 3 7.50382 3 10.5785C3 13.6532 5.48755 16.1407 8.56223 16.1407C9.86009 16.1407 11.0498 15.6927 11.9923 14.951C10.7099 13.9467 9.87554 12.3553 9.87554 10.5785Z" fill="#EB001B"/>
<path d="M21 10.5785C21 13.6532 18.5124 16.1408 15.4377 16.1408C14.1399 16.1408 12.9502 15.6927 12.0077 14.9511C13.3055 13.9313 14.1244 12.3554 14.1244 10.5785C14.1244 8.8017 13.2901 7.22574 12.0077 6.206C12.9502 5.46437 14.1399 5.0163 15.4377 5.0163C18.5124 5.0163 21 7.5193 21 10.5785Z" fill="#F79E1B"/>
</svg>
