<svg width="24" height="24" viewBox="0 0 24 24" fill="none" xmlns="http://www.w3.org/2000/svg">
<path d="M8.70592 20.3898L9.01788 18.4083L8.32298 18.3922H5.00476L7.31076 3.77067C7.31791 3.72653 7.34118 3.68537 7.37518 3.65614C7.40917 3.62691 7.45272 3.61081 7.49805 3.61081H13.093C14.9505 3.61081 16.2323 3.99733 16.9016 4.76023C17.2153 5.11812 17.4151 5.49211 17.5118 5.90368C17.6132 6.33553 17.615 6.85149 17.5159 7.48078L17.5088 7.52671V7.92993L17.8225 8.10768C18.0868 8.24785 18.2967 8.4083 18.4578 8.59202C18.7262 8.89801 18.8998 9.28692 18.9731 9.748C19.0489 10.2222 19.0238 10.7865 18.8998 11.4253C18.7566 12.1602 18.5252 12.8002 18.2126 13.3239C17.9251 13.8065 17.5589 14.2067 17.1241 14.5169C16.7089 14.8115 16.2156 15.0352 15.6579 15.1784C15.1175 15.3191 14.5013 15.3901 13.8255 15.3901H13.3901C13.0787 15.3901 12.7763 15.5022 12.5389 15.7033C12.3009 15.9085 12.1434 16.1888 12.0951 16.4954L12.0623 16.6737L11.5112 20.1661L11.4861 20.2944C11.4796 20.3349 11.4682 20.3552 11.4515 20.3689C11.4366 20.3815 11.4151 20.3898 11.3943 20.3898H8.70592V20.3898Z" fill="#253B80"/>
<path d="M18.1198 7.57318V7.57318V7.57318C18.1031 7.67995 18.084 7.78911 18.0626 7.90125C17.3247 11.6895 14.8004 12.9982 11.5764 12.9982H9.93491C9.54064 12.9982 9.2084 13.2845 9.14696 13.6734V13.6734V13.6734L8.30652 19.0035L8.06852 20.5144C8.02856 20.7697 8.2254 21 8.48308 21H11.3945C11.7393 21 12.0321 20.7494 12.0864 20.4094L12.115 20.2615L12.6632 16.7828L12.6984 16.592C12.7521 16.2508 13.0456 16.0003 13.3903 16.0003H13.8258C16.6465 16.0003 18.8547 14.855 19.5001 11.541C19.7697 10.1565 19.6301 9.00056 18.9167 8.18756C18.7008 7.9424 18.433 7.739 18.1198 7.57318V7.57318Z" fill="#179BD7"/>
<path d="M17.3477 7.26545C17.235 7.23264 17.1187 7.20282 16.9994 7.17598C16.8795 7.14973 16.7566 7.12647 16.6302 7.10619C16.1876 7.03461 15.7026 7.00061 15.1831 7.00061H10.7978C10.6898 7.00061 10.5872 7.02507 10.4954 7.06921C10.2932 7.16643 10.1429 7.3579 10.1065 7.59232L9.17357 13.5011L9.14673 13.6734C9.20817 13.2845 9.54041 12.9982 9.93468 12.9982H11.5762C14.8002 12.9982 17.3245 11.6889 18.0623 7.9013C18.0844 7.78916 18.1029 7.68 18.1196 7.57323C17.9329 7.47422 17.7307 7.38952 17.513 7.31734C17.4593 7.29945 17.4038 7.28215 17.3477 7.26545V7.26545Z" fill="#222D65"/>
<path d="M10.4955 7.06979C10.588 7.02565 10.69 7.00119 10.798 7.00119H15.1833C15.7028 7.00119 16.1877 7.03519 16.6303 7.10677C16.7568 7.12705 16.8797 7.15031 16.9996 7.17656C17.1189 7.2034 17.2352 7.23322 17.3479 7.26603C17.404 7.28273 17.4594 7.30003 17.5137 7.31733C17.7314 7.3895 17.9336 7.4748 18.1203 7.57322C18.3399 6.17328 18.1186 5.2201 17.3616 4.35699C16.5271 3.4068 15.021 3 13.0938 3H7.49882C7.10514 3 6.76932 3.28631 6.70848 3.67581L4.37803 18.4477C4.3321 18.7399 4.55757 19.0036 4.85223 19.0036H8.30645L9.17373 13.501L10.1066 7.59231C10.143 7.35789 10.2933 7.16642 10.4955 7.06979Z" fill="#253B80"/>
</svg>
