<svg width="105" height="18" viewBox="0 0 105 18" fill="none" xmlns="http://www.w3.org/2000/svg">
<path d="M15.6891 5.2377C15.2738 4.84531 14.7806 4.53404 14.2377 4.32168C13.6949 4.10931 13.1131 4 12.5255 4C11.9379 4 11.3561 4.10931 10.8133 4.32168C10.2704 4.53404 9.77724 4.84531 9.36186 5.2377L8.49978 6.05166L7.63771 5.2377C6.79866 4.44548 5.66066 4.00041 4.47407 4.00041C3.28747 4.00041 2.14947 4.44548 1.31042 5.2377C0.471374 6.02993 8.84083e-09 7.10441 0 8.22479C-8.84083e-09 9.34516 0.471374 10.4196 1.31042 11.2119L2.1725 12.0258L8.49978 18L14.8271 12.0258L15.6891 11.2119C16.1047 10.8197 16.4344 10.354 16.6593 9.84146C16.8842 9.32893 17 8.77958 17 8.22479C17 7.67 16.8842 7.12064 16.6593 6.60811C16.4344 6.09558 16.1047 5.6299 15.6891 5.2377V5.2377Z" fill="#161616"/>
<path d="M32.196 7.74C32.132 7.852 32.06 7.932 31.98 7.98C31.9 8.028 31.8 8.052 31.68 8.052C31.544 8.052 31.396 8.012 31.236 7.932C31.076 7.844 30.888 7.748 30.672 7.644C30.456 7.54 30.2 7.448 29.904 7.368C29.616 7.28 29.276 7.236 28.884 7.236C28.564 7.236 28.272 7.276 28.008 7.356C27.752 7.428 27.532 7.536 27.348 7.68C27.172 7.816 27.036 7.98 26.94 8.172C26.844 8.356 26.796 8.556 26.796 8.772C26.796 9.06 26.884 9.3 27.06 9.492C27.236 9.684 27.468 9.852 27.756 9.996C28.044 10.132 28.372 10.256 28.74 10.368C29.108 10.48 29.484 10.6 29.868 10.728C30.252 10.856 30.628 11.004 30.996 11.172C31.364 11.34 31.692 11.548 31.98 11.796C32.268 12.036 32.5 12.332 32.676 12.684C32.852 13.028 32.94 13.448 32.94 13.944C32.94 14.52 32.836 15.052 32.628 15.54C32.42 16.028 32.116 16.452 31.716 16.812C31.316 17.172 30.816 17.452 30.216 17.652C29.624 17.852 28.944 17.952 28.176 17.952C27.752 17.952 27.34 17.912 26.94 17.832C26.548 17.76 26.172 17.66 25.812 17.532C25.46 17.396 25.128 17.236 24.816 17.052C24.512 16.868 24.24 16.668 24 16.452L24.6 15.468C24.672 15.348 24.76 15.256 24.864 15.192C24.976 15.12 25.112 15.084 25.272 15.084C25.44 15.084 25.604 15.14 25.764 15.252C25.932 15.356 26.124 15.472 26.34 15.6C26.564 15.728 26.832 15.848 27.144 15.96C27.456 16.064 27.844 16.116 28.308 16.116C28.692 16.116 29.024 16.072 29.304 15.984C29.584 15.888 29.816 15.76 30 15.6C30.184 15.44 30.32 15.26 30.408 15.06C30.496 14.852 30.54 14.632 30.54 14.4C30.54 14.088 30.452 13.832 30.276 13.632C30.1 13.432 29.864 13.26 29.568 13.116C29.28 12.972 28.948 12.844 28.572 12.732C28.204 12.62 27.828 12.5 27.444 12.372C27.06 12.244 26.68 12.096 26.304 11.928C25.936 11.76 25.604 11.548 25.308 11.292C25.02 11.028 24.788 10.712 24.612 10.344C24.436 9.968 24.348 9.512 24.348 8.976C24.348 8.488 24.444 8.024 24.636 7.584C24.836 7.144 25.124 6.756 25.5 6.42C25.884 6.084 26.352 5.82 26.904 5.628C27.464 5.428 28.108 5.328 28.836 5.328C29.66 5.328 30.408 5.46 31.08 5.724C31.752 5.988 32.316 6.348 32.772 6.804L32.196 7.74Z" fill="#161616"/>
<path d="M43.3926 10.26C43.3926 9.828 43.3286 9.428 43.2006 9.06C43.0806 8.684 42.9006 8.36 42.6606 8.088C42.4206 7.808 42.1206 7.592 41.7606 7.44C41.4086 7.28 41.0006 7.2 40.5366 7.2C39.6006 7.2 38.8646 7.468 38.3286 8.004C37.7926 8.54 37.4526 9.292 37.3086 10.26H43.3926ZM37.2366 11.844C37.2686 12.54 37.3766 13.144 37.5606 13.656C37.7446 14.16 37.9886 14.58 38.2926 14.916C38.6046 15.252 38.9726 15.504 39.3966 15.672C39.8286 15.832 40.3086 15.912 40.8366 15.912C41.3406 15.912 41.7766 15.856 42.1446 15.744C42.5126 15.624 42.8326 15.496 43.1046 15.36C43.3766 15.216 43.6086 15.088 43.8006 14.976C43.9926 14.856 44.1686 14.796 44.3286 14.796C44.5366 14.796 44.6966 14.876 44.8086 15.036L45.5406 15.984C45.2366 16.344 44.8926 16.648 44.5086 16.896C44.1246 17.144 43.7166 17.348 43.2846 17.508C42.8526 17.66 42.4086 17.768 41.9526 17.832C41.4966 17.904 41.0526 17.94 40.6206 17.94C39.7726 17.94 38.9846 17.8 38.2566 17.52C37.5366 17.232 36.9086 16.812 36.3726 16.26C35.8446 15.708 35.4286 15.024 35.1246 14.208C34.8286 13.392 34.6806 12.452 34.6806 11.388C34.6806 10.54 34.8126 9.748 35.0766 9.012C35.3486 8.276 35.7326 7.636 36.2286 7.092C36.7326 6.548 37.3406 6.12 38.0526 5.808C38.7726 5.488 39.5846 5.328 40.4886 5.328C41.2406 5.328 41.9366 5.452 42.5766 5.7C43.2166 5.94 43.7686 6.296 44.2326 6.768C44.6966 7.24 45.0566 7.82 45.3126 8.508C45.5766 9.188 45.7086 9.964 45.7086 10.836C45.7086 11.236 45.6646 11.504 45.5766 11.64C45.4886 11.776 45.3286 11.844 45.0966 11.844H37.2366Z" fill="#161616"/>
<path d="M50.7426 0V17.76H48.1626V0H50.7426Z" fill="#161616"/>
<path d="M54.7551 17.76V7.572L53.5551 7.404C53.3551 7.364 53.1911 7.292 53.0631 7.188C52.9431 7.084 52.8831 6.936 52.8831 6.744V5.688H54.7551V4.656C54.7551 3.96 54.8551 3.336 55.0551 2.784C55.2631 2.232 55.5551 1.764 55.9311 1.38C56.3151 0.995999 56.7791 0.703999 57.3231 0.503999C57.8671 0.295999 58.4791 0.191999 59.1591 0.191999C59.4391 0.191999 59.7031 0.211999 59.9511 0.251999C60.2071 0.291999 60.4551 0.351999 60.6951 0.431999L60.6471 1.728C60.6311 1.944 60.5231 2.072 60.3231 2.112C60.1311 2.152 59.8871 2.172 59.5911 2.172C59.2311 2.172 58.9071 2.216 58.6191 2.304C58.3311 2.384 58.0831 2.524 57.8751 2.724C57.6751 2.924 57.5191 3.188 57.4071 3.516C57.3031 3.844 57.2511 4.252 57.2511 4.74V5.688H60.5991V7.548H57.3351V17.76H54.7551Z" fill="#161616"/>
<path d="M70.7353 7.92C70.6553 8.024 70.5793 8.104 70.5073 8.16C70.4353 8.216 70.3313 8.244 70.1953 8.244C70.0593 8.244 69.9153 8.196 69.7633 8.1C69.6193 8.004 69.4433 7.9 69.2353 7.788C69.0353 7.668 68.7913 7.56 68.5033 7.464C68.2153 7.368 67.8553 7.32 67.4233 7.32C66.8633 7.32 66.3713 7.42 65.9473 7.62C65.5313 7.82 65.1793 8.108 64.8913 8.484C64.6113 8.852 64.3993 9.304 64.2553 9.84C64.1193 10.368 64.0513 10.964 64.0513 11.628C64.0513 12.316 64.1273 12.928 64.2793 13.464C64.4313 14 64.6473 14.452 64.9273 14.82C65.2153 15.188 65.5593 15.468 65.9593 15.66C66.3673 15.852 66.8233 15.948 67.3273 15.948C67.8233 15.948 68.2273 15.888 68.5393 15.768C68.8513 15.648 69.1113 15.516 69.3193 15.372C69.5273 15.228 69.7033 15.096 69.8473 14.976C69.9993 14.856 70.1593 14.796 70.3273 14.796C70.5353 14.796 70.6953 14.876 70.8073 15.036L71.5393 15.984C71.2433 16.344 70.9153 16.648 70.5553 16.896C70.1953 17.144 69.8153 17.348 69.4153 17.508C69.0153 17.66 68.5993 17.768 68.1673 17.832C67.7353 17.904 67.2993 17.94 66.8593 17.94C66.0993 17.94 65.3873 17.8 64.7233 17.52C64.0673 17.232 63.4913 16.82 62.9953 16.284C62.5073 15.74 62.1193 15.08 61.8313 14.304C61.5513 13.52 61.4113 12.628 61.4113 11.628C61.4113 10.724 61.5393 9.888 61.7953 9.12C62.0513 8.344 62.4233 7.676 62.9113 7.116C63.4073 6.556 64.0193 6.12 64.7473 5.808C65.4753 5.488 66.3153 5.328 67.2673 5.328C68.1553 5.328 68.9353 5.472 69.6073 5.76C70.2873 6.048 70.8913 6.456 71.4193 6.984L70.7353 7.92Z" fill="#161616"/>
<path d="M80.1546 12.408C79.2346 12.44 78.4586 12.516 77.8266 12.636C77.1946 12.748 76.6826 12.896 76.2906 13.08C75.8986 13.256 75.6146 13.468 75.4386 13.716C75.2706 13.964 75.1866 14.236 75.1866 14.532C75.1866 14.82 75.2306 15.068 75.3186 15.276C75.4146 15.476 75.5426 15.644 75.7026 15.78C75.8706 15.908 76.0626 16.004 76.2786 16.068C76.5026 16.124 76.7466 16.152 77.0106 16.152C77.6826 16.152 78.2586 16.028 78.7386 15.78C79.2266 15.524 79.6986 15.156 80.1546 14.676V12.408ZM73.3146 7.224C74.6986 5.936 76.3466 5.292 78.2586 5.292C78.9626 5.292 79.5866 5.408 80.1306 5.64C80.6826 5.864 81.1426 6.184 81.5106 6.6C81.8866 7.016 82.1706 7.512 82.3626 8.088C82.5626 8.656 82.6626 9.288 82.6626 9.984V17.76H81.5106C81.2626 17.76 81.0746 17.724 80.9466 17.652C80.8186 17.572 80.7106 17.416 80.6226 17.184L80.3706 16.188C80.0586 16.468 79.7506 16.72 79.4466 16.944C79.1426 17.16 78.8266 17.344 78.4986 17.496C78.1786 17.648 77.8306 17.76 77.4546 17.832C77.0866 17.912 76.6786 17.952 76.2306 17.952C75.7346 17.952 75.2706 17.884 74.8386 17.748C74.4146 17.612 74.0466 17.408 73.7346 17.136C73.4226 16.856 73.1746 16.512 72.9906 16.104C72.8146 15.696 72.7266 15.216 72.7266 14.664C72.7266 14.192 72.8506 13.732 73.0986 13.284C73.3546 12.836 73.7706 12.436 74.3466 12.084C74.9306 11.724 75.6946 11.428 76.6386 11.196C77.5906 10.964 78.7626 10.832 80.1546 10.8V9.984C80.1546 9.104 79.9666 8.448 79.5906 8.016C79.2146 7.584 78.6626 7.368 77.9346 7.368C77.4386 7.368 77.0226 7.432 76.6866 7.56C76.3506 7.68 76.0586 7.812 75.8106 7.956C75.5626 8.1 75.3426 8.236 75.1506 8.364C74.9586 8.484 74.7546 8.544 74.5386 8.544C74.3626 8.544 74.2106 8.5 74.0826 8.412C73.9626 8.316 73.8626 8.2 73.7826 8.064L73.3146 7.224Z" fill="#161616"/>
<path d="M88.1209 7.788C88.5049 7.012 88.9689 6.404 89.5129 5.964C90.0569 5.516 90.7089 5.292 91.4689 5.292C91.7329 5.292 91.9809 5.324 92.2129 5.388C92.4449 5.444 92.6529 5.532 92.8369 5.652L92.6569 7.596C92.6249 7.732 92.5729 7.828 92.5009 7.884C92.4369 7.932 92.3489 7.956 92.2369 7.956C92.1169 7.956 91.9449 7.936 91.7209 7.896C91.4969 7.848 91.2609 7.824 91.0129 7.824C90.6529 7.824 90.3329 7.876 90.0529 7.98C89.7809 8.084 89.5329 8.236 89.3089 8.436C89.0929 8.636 88.9009 8.88 88.7329 9.168C88.5649 9.456 88.4089 9.784 88.2649 10.152V17.76H85.6849V5.52H87.1849C87.4569 5.52 87.6449 5.572 87.7489 5.676C87.8529 5.772 87.9249 5.944 87.9649 6.192L88.1209 7.788Z" fill="#161616"/>
<path d="M102.15 10.26C102.15 9.828 102.086 9.428 101.958 9.06C101.838 8.684 101.658 8.36 101.418 8.088C101.178 7.808 100.878 7.592 100.518 7.44C100.166 7.28 99.7584 7.2 99.2944 7.2C98.3584 7.2 97.6224 7.468 97.0864 8.004C96.5504 8.54 96.2104 9.292 96.0664 10.26H102.15ZM95.9944 11.844C96.0264 12.54 96.1344 13.144 96.3184 13.656C96.5024 14.16 96.7464 14.58 97.0504 14.916C97.3624 15.252 97.7304 15.504 98.1544 15.672C98.5864 15.832 99.0664 15.912 99.5944 15.912C100.098 15.912 100.534 15.856 100.902 15.744C101.27 15.624 101.59 15.496 101.862 15.36C102.134 15.216 102.366 15.088 102.558 14.976C102.75 14.856 102.926 14.796 103.086 14.796C103.294 14.796 103.454 14.876 103.566 15.036L104.298 15.984C103.994 16.344 103.65 16.648 103.266 16.896C102.882 17.144 102.474 17.348 102.042 17.508C101.61 17.66 101.166 17.768 100.71 17.832C100.254 17.904 99.8104 17.94 99.3784 17.94C98.5304 17.94 97.7424 17.8 97.0144 17.52C96.2944 17.232 95.6664 16.812 95.1304 16.26C94.6024 15.708 94.1864 15.024 93.8824 14.208C93.5864 13.392 93.4384 12.452 93.4384 11.388C93.4384 10.54 93.5704 9.748 93.8344 9.012C94.1064 8.276 94.4904 7.636 94.9864 7.092C95.4904 6.548 96.0984 6.12 96.8104 5.808C97.5304 5.488 98.3424 5.328 99.2464 5.328C99.9984 5.328 100.694 5.452 101.334 5.7C101.974 5.94 102.526 6.296 102.99 6.768C103.454 7.24 103.814 7.82 104.07 8.508C104.334 9.188 104.466 9.964 104.466 10.836C104.466 11.236 104.422 11.504 104.334 11.64C104.246 11.776 104.086 11.844 103.854 11.844H95.9944Z" fill="#161616"/>
</svg>
